/* XPM */
static char *_8f313c2093f427fe54b98f20463f042KNLIX34Tcd4lSwPd[] = {
/* columns rows colors chars-per-pixel */
"64 64 195 2 ",
"   c None",
".  c #030503",
"X  c #060807",
"o  c #0B0B07",
"O  c #070A08",
"+  c #0A0D0B",
"@  c #120E0B",
"#  c #1B0C0B",
"$  c #140807",
"%  c #0D110E",
"&  c #13130D",
"*  c #1C130F",
"=  c #1A180E",
"-  c #0E1311",
";  c #121512",
":  c #1B1611",
">  c #141916",
",  c #1C1B14",
"<  c #161D19",
"1  c #1B1D19",
"2  c #240E0D",
"3  c #2B100E",
"4  c #241411",
"5  c #2F1211",
"6  c #211E14",
"7  c #211D19",
"8  c #351412",
"9  c #3C1413",
"0  c #3F1A19",
"q  c #1B211D",
"w  c #242116",
"e  c #25231C",
"r  c #28261D",
"t  c #2D2A1B",
"y  c #302C1C",
"u  c #34311E",
"i  c #1D2622",
"p  c #222421",
"a  c #232925",
"s  c #2B2A23",
"d  c #2C2D2A",
"f  c #292721",
"g  c #322E23",
"h  c #302F2C",
"j  c #2C322D",
"k  c #353123",
"l  c #3A3524",
"z  c #3E3A24",
"x  c #34332B",
"c  c #3A372B",
"v  c #3C392C",
"b  c #343632",
"n  c #373935",
"m  c #3C3B33",
"M  c #3B3D3A",
"N  c #431615",
"B  c #451A19",
"V  c #4D1B1A",
"C  c #491817",
"Z  c #521B1A",
"A  c #5B1E1D",
"S  c #57201E",
"D  c #433D26",
"F  c #433D2B",
"G  c #413E32",
"H  c #632221",
"J  c #6B2322",
"K  c #7D2C2A",
"L  c #3F413C",
"P  c #484227",
"I  c #46412B",
"U  c #4B442B",
"Y  c #4E492D",
"T  c #534C2E",
"R  c #454234",
"E  c #4C4533",
"W  c #4F4934",
"Q  c #44433C",
"!  c #494639",
"~  c #4D4A3C",
"^  c #534C34",
"/  c #534D3D",
"(  c #584E37",
")  c #565133",
"_  c #5B5434",
"`  c #5F5936",
"'  c #56523C",
"]  c #5B533A",
"[  c #5F593F",
"{  c #625A37",
"}  c #61573E",
"|  c #635B3C",
" . c #645B38",
".. c #6B633E",
"X. c #67603F",
"o. c #70673E",
"O. c #444542",
"+. c #4A4A45",
"@. c #4D4E4A",
"#. c #454843",
"$. c #524F41",
"%. c #4F504B",
"&. c #555243",
"*. c #5A5545",
"=. c #5C5846",
"-. c #52534D",
";. c #5D5949",
":. c #555652",
">. c #5A5A54",
",. c #5D5F59",
"<. c #635C43",
"1. c #6A5F45",
"2. c #625D4C",
"3. c #5F615A",
"4. c #6D6344",
"5. c #65624F",
"6. c #6B644C",
"7. c #6E694D",
"8. c #746B43",
"9. c #736B4C",
"0. c #716743",
"q. c #7C734B",
"w. c #7C7346",
"e. c #666251",
"r. c #6A6653",
"t. c #6D6955",
"y. c #63635E",
"u. c #6E6B58",
"i. c #726C55",
"p. c #726D5A",
"a. c #7B7352",
"s. c #76715D",
"d. c #7A745D",
"f. c #7B7554",
"g. c #6A6B64",
"h. c #6F6F69",
"j. c #666660",
"k. c #706D66",
"l. c #6F7169",
"z. c #7B7661",
"x. c #7E7963",
"c. c #73746D",
"v. c #7B7C77",
"b. c #7B7B7A",
"n. c #8B2F2E",
"m. c #81784A",
"M. c #827B59",
"N. c #827C65",
"B. c #837E69",
"V. c #7F8078",
"C. c #7E8077",
"Z. c #868065",
"A. c #868069",
"S. c #8B856C",
"D. c #8D886F",
"F. c #888065",
"G. c #8C8670",
"H. c #8E8970",
"J. c #82847C",
"K. c #938C73",
"L. c #979176",
"P. c #999175",
"I. c #9C957A",
"U. c #9F997D",
"Y. c #979178",
"T. c #A19A7E",
"R. c #A1967C",
"E. c #8B8D84",
"W. c #8F9188",
"Q. c #92948A",
"!. c #A49D81",
"~. c #A89F81",
"^. c #A7A184",
"/. c #ABA385",
"(. c #AEA689",
"). c #AFA88B",
"_. c #B0A788",
"`. c #B3AB8C",
"'. c #B0A787",
"]. c #B7B08F",
"[. c #B8B18F",
"{. c #B6AF90",
"}. c #B7B190",
"|. c #B9B291",
" X c #BAB394",
".X c #BCB595",
"XX c #BEB696",
"oX c #BBB494",
"OX c #BFB897",
"+X c #BDB798",
"@X c #C0B797",
"#X c #C0B897",
"$X c #C2BA99",
"%X c #C3BB9A",
"&X c #C0B799",
/* pixels */
"                                                              D                                                                 ",
"                                                      r g G ! | ) 2.! e                                                         ",
"                                        6   x &.s.G.I.).oX#X%XD.9.`.XX(.K.e.m &                                                 ",
"                                    d x T A.OXOX$X$X$X$X%X%X%XH.8.(.oX X].[.oX/.K.*.m                                           ",
"                                  ;.z.s.( a. X+X+XXX@XXXOX$X%XS.q.`.XXXX|.|.XX`.`.].'.t.                                        ",
"                                e r.z.S.=.q.D. X|.`.[.[.oXOX%XF.a.K.S.).@XXX|.`.`.`.`.).!                                       ",
"                                f i.d.I.~._ m.`.`.'.`.[.`.{.OXN.9.K.|.@XXXXX|.`.`.`.`.|.L.                                      ",
"                              , & t.N.T.'.5.m.P.(./.`.`.T.s.L.a.f.[.|.XXXX|.}.`.`.`.].|.oXv                                     ",
"                            t l G / z.(._.P.| q.T./.`.|.|.I.;._ G &.N.`.XX|.|.{.|.|.].|.U.x                                     ",
"                      c $.&.v W t.m t._.`.`.N.{ 9./.`.}.].}./.8.r.H.L.T.|.|.{.}.XXoX).p.! v Y v Q x f                           ",
"                  s ;.K.P.(.<.k t.! R /.]./.~.E 8.P.}.|.}.`.T.) H.oXXXXXXX|.|.|.+X/.p.s.^.' ^ `.$X|.I.2.v                       ",
"              & &.x.K.`.I.'.i.W F 2.m d._./.P.K.T 9.T.|.`.`.S.` ). XoX|.XX|.`.|.$X{.}.OXf.X.z.%X$X%X%XXX{.!                     ",
"              2.x.B.(.}.].K.Z._ t.c ' &.B.~.~.F.i.o.4.~.~.L.9.^ ~ r.B.B.z.N.K. X$X$X).Z...A.%X%X$X@X@XXX|.=.P                   ",
"            d x.B.H.).}.].S.Z.U L.! m ;.6.I.'.i.K.] 0.6.L.' ) d.D.~ g x ! z.`.XXOX(.d.8.7.@X$X$X$X@X@XXXXX7.| e                 ",
"            +.x.A.U.].}.].U.2._ 2.~ 7 r p.p.I.T.! L.=...r.5.) ~ [.`.~.S.D.`.{.XX].9.` i.oX$X$X$X%X@X@XXXXX7.m.2.                ",
"            x &.;.I.`.}.].].D.x 1.R.I.! x H.^.`.D.R z.] _ ` ) ;.K.[.`.`.`.'.`.T.q.| S.$XOX$X$X$X%X@X@X@X(.` d.$.                ",
"              t &.d.).}.}.|.`.B. .t.S.r.r &.T.`.}.z.~ ;.I o.v *.Z.].x.d.A.N.d.0.=.U.|.$XXX@X&X@XOXOXoX@Xd.4.r.:                 ",
"              q E r.S.}.|.|.].`.9.T 2.r.2.~ G P.}.|.H.! ` t ) v &.^.T.;.c D l I K./.|. XoX|.@X|.oXOXOX`.' <.v                   ",
"              X z U ' x.U.(.(.).P.4.7.`. X!.d.x Z.(.}.) Y ~ x _ ^ L 6.` ^ 2.S.&.R 5.B.Y.S.D.P.(.oXOX|.f.{ S.                    ",
"              . *.R U v ! x.N.K.`.7.o.D. X+XI.! a r.u.) ;.5.;.v ` { X.I ;.T.(.(.B.2.&.;.N.^.].`. XoXL.8.f.I.                    ",
"                *.B.;.l t W x.).T.x.I ..~.`.r.!   , ` ' z.7.) X.T t ) Y *.N.K.`.`.oX`./.`.`.`.`. Xz...8.).I.q                   ",
"                ! B.Z.I.z.t D T w 1 m T ' 5.$.1 o ) P  .q.^ t ! f.p.v T ..=.T.`.|.|.'.(._._.~.~.! ) 0.T.U.I.m                   ",
"                L r.d.S.D.B.*.z D U D u ) D ^ T  .` _ u X & ! p.x.x.d.R l o._ z r.D.H.K.P.K.p.v F 0.S.T.I.`.;.                  ",
"                ; *./ 5.T.Y.K.x.p.p.&.v & { D &               + e z L b r & w D ^ D l v / 2.$.D 0.K.T.5.x.~                     ",
"                  & ! ! v 2.2./ ! *.<.8.` r T t       X .                   & 2.e , z w.q.I { T ] ] ^ u ;                       ",
"                    t P D u u y z U ^ R +.).! P t   & F F s w 6 w , :       : z.*.i.' , U 8.U ) | ^ ^ &                         ",
"                    F r.&.2.u.H.I.x.`.U.&.!.I.: D P P D ] ^ ! ( I ] <.} D 6 , r.A.c 4. .) / d.I.N.=.S.                          ",
"                  1 e.p.t.r.D.I.x.!.!.$Xx.K.$X$.  w ) Y 4.| w z , W <.1.( { y E  .` v B.D.T.P.`.z.;.S.                          ",
"                  ~ &.G.B.z.r.*.x.~.Y.%X&X(.&Xi.o ) g ( 4.^ * & k * e 1.] F Y u w f ~ ~._._.H./.s.r.H.                          ",
"                  1 $.Y.G.B.|.d.).G.~.%X%X%X|.p.@ = c 1.( g G E l F 7 1.1.l y     e &.K._.`.I.S.N.D.^.                          ",
"                  e t.!.S.z.+X+X Xu.~.%X_.~.g.      , E 7 } ( 6 D F F l 4.( u &   + s e.r.$.2.<.z.!.'./                         ",
"                  x r.!.S.u.].$X).t.Q.&.          * I 4.F g W w g k <.y E D &     . . h j.>.e 2.s._._.2.                        ",
"                    x 2.x.p.Y.&XY.2.h             6 ( 1.1.F w l F F 6 E ( g         . -.J.3.Q t.S.'.`.&.                        ",
"                        x z.p.I.S.d.,             6 F 1.1.1.( w 4 7 W R E D           %.%.p a ! /._.~.~                         ",
"                      . Q B.;.e.u.:.:               + 7 k E ] ] ^ ^ ( ] W l         + + - % + + f p.K.=.1                       ",
"                      . 1 @.n 1 x v.m                       ; : 6 6 w w w :         % + ; b %.#.d f g 2.                        ",
"                        + %.g.c.J.C.Q                                               . b l.J.E.,.b ! e &                         ",
"                      . . p ,.W.E.b.+.                                              + h.V.V.J.y.:   @ .                         ",
"                        . + M W.E.v.-.                                              ; c.c.#.b :.O       ;                       ",
"                        . + > J.W.v.>.                                              e h.O.b :.M         -                       ",
"                      + + - + h g.c.y.                                              d h.#.L :.O.      + +                       ",
"                      - O s > + b g.g.                                              x k.Q 1 b d O   % % .                       ",
"                      .   d O.+ ; ,.c.                                              m k.y.p ; 1 # 3 : X %                       ",
"                    . -   d :.1 O q y.                                              O.j.>.+.; ; 8 Z 8 * % -                     ",
"                    + -   7 y.Q > + p o B H @                                       M -.-.:.h : K J Z & + % .                   ",
"                    - .   > :.+.M - + # n.K 2                             +         M c.>.-.h + C J 8 > O O + O                 ",
"                    - .     M M O.d ; > V n.8                             q ;     X m c.+.+., > > - + +                         ",
"                      1   - M O.-.g.a - : S 2                             a > %   % m :.Q m X + + + >                           ",
"                      - % % b ,.O.:.M X . #                                 ; . + % n s @.i . q + ; < i +                       ",
"                    . . O   d y.M >.E.- -                                   + . + . + + x < - - < i %                           ",
"                    O O - - : >.+.y.J.d +                                 > > 4 8 2 : ; ; ; % > ; < < .                         ",
"              + + . O - - > % @.-.@.,.L .                                   > B V A J + O O O - O > -                           ",
"              + ; - . + O + + p p # A B $                                   9 H N A C > 1 % + O                                 ",
"              + + O O O . - > O O N H Z 8                                     N C H 4 X - - > % +                               ",
"                + ; O - - ; > - + A Z 8 9 C                                   + # 5 & ; $ V ; . .                               ",
"              > O O - ; q ; j < X * 3 K Z $                                 + + + > q < 9 J C 2 O -                             ",
"                  ; % O - - + i ; ; > 8 @ % - +                           . % + % q > q 4 V 9 C - <                             ",
"                O q > > i < % q ; > - O . - +   -                         . + + % - - > 7 J C 8 O                               ",
"              - . % - % - j n -.< d > % . . % .                             O + O + O i 1 % + ; % > > +                         ",
"                    O O O.b.b.b.@.@.b . . .                               . O - % % O + . . O 1 + > i                           ",
"                        j L O.@.x % .                                     . . O + . .       . . . . .                           ",
"                                                                                                                                ",
"                                                                                                                                ",
"                                                                                                                                "
};
