/* XPM */
static char *f470b8a3258d48708beb3979996fc671uYFOYi4jTB70ulZ5[] = {
/* columns rows colors chars-per-pixel */
"64 64 227 2 ",
"   c None",
".  c #0A0905",
"X  c #11110C",
"o  c #1D1D17",
"O  c #2D2D26",
"+  c #3C3C35",
"@  c #45453E",
"#  c #5C5F3C",
"$  c #767E26",
"%  c #6B703A",
"&  c #4F4E43",
"*  c #57564B",
"=  c #5C5B4F",
"-  c #5D5D5B",
";  c #606050",
":  c #636254",
">  c #666759",
",  c #6C6B5E",
"<  c #636361",
"1  c #686962",
"2  c #6E6D60",
"3  c #6A6B68",
"4  c #6E6E6C",
"5  c #717062",
"6  c #747364",
"7  c #777667",
"8  c #72726C",
"9  c #767869",
"0  c #7B796A",
"q  c #7A7D6E",
"w  c #747571",
"e  c #797974",
"r  c #7C7C77",
"t  c #7E7F79",
"y  c #807F6E",
"u  c #7F8273",
"i  c #85892A",
"p  c #8C8E38",
"a  c #9C9635",
"s  c #AA9939",
"d  c #AE9F3C",
"f  c #B2A03E",
"g  c #B4A13E",
"h  c #8F914F",
"j  c #9E9346",
"k  c #AD9E45",
"l  c #A89B4C",
"z  c #A69B58",
"x  c #B4A241",
"c  c #B5A241",
"v  c #B1A244",
"b  c #B9A542",
"n  c #B9A84B",
"m  c #B0A457",
"M  c #8E8964",
"N  c #9D9962",
"B  c #99966D",
"V  c #848273",
"C  c #838276",
"Z  c #868676",
"A  c #878677",
"S  c #868679",
"D  c #80817C",
"F  c #83837D",
"G  c #85857F",
"H  c #8B8A79",
"J  c #8D8C7B",
"K  c #8B887E",
"L  c #8D8C7C",
"P  c #8E8D7E",
"I  c #908F7E",
"U  c #9F9E75",
"Y  c #92917D",
"T  c #BBAF6D",
"R  c #A8A376",
"E  c #C2B367",
"W  c #7D8C84",
"Q  c #878781",
"!  c #8B8B83",
"~  c #8E8C80",
"^  c #8E8E86",
"/  c #908F81",
"(  c #908E82",
")  c #8F9181",
"_  c #84948A",
"`  c #919082",
"'  c #949381",
"]  c #949285",
"[  c #969585",
"{  c #949987",
"}  c #989884",
"|  c #9A9A87",
" . c #909089",
".. c #93938B",
"X. c #97968A",
"o. c #96968E",
"O. c #989589",
"+. c #9A978A",
"@. c #9A998B",
"#. c #9D9C8A",
"$. c #9F9F8B",
"%. c #9C9A8D",
"&. c #9E9B8E",
"*. c #9D9C8D",
"=. c #9E9D8D",
"-. c #9F9D8E",
";. c #9F9D8F",
":. c #959991",
">. c #999A92",
",. c #9D9D91",
"<. c #9B9C94",
"1. c #9E9F96",
"2. c #A09E90",
"3. c #99A393",
"4. c #A7A686",
"5. c #A1A08F",
"6. c #A2A18E",
"7. c #B0AC83",
"8. c #A2A092",
"9. c #A4A390",
"0. c #A7A692",
"q. c #A4A394",
"w. c #A6A595",
"e. c #A9A894",
"r. c #AAA997",
"t. c #ABAA96",
"y. c #A1A298",
"u. c #A4A59A",
"i. c #A6A79D",
"p. c #A4AC99",
"a. c #A8A899",
"s. c #A9A899",
"d. c #AAAA98",
"f. c #ACAA9A",
"g. c #ADAC98",
"h. c #ACAD9B",
"j. c #AFAE9A",
"k. c #AAA99D",
"l. c #AFAE9E",
"z. c #AFAE9F",
"x. c #B1AF9C",
"c. c #B1B09D",
"v. c #B4B29E",
"b. c #B4B39F",
"n. c #ABADA1",
"m. c #AFB0A3",
"M. c #B1B0A1",
"N. c #B2B2A0",
"B. c #B4B4A1",
"V. c #B6B5A0",
"C. c #B6B6A2",
"Z. c #B7B6A3",
"A. c #B3B4A6",
"S. c #B9B8A4",
"D. c #BBB9A5",
"F. c #BCBBA7",
"G. c #B7B7A9",
"H. c #B4BAAD",
"J. c #BEBCA8",
"K. c #BBBBAD",
"L. c #BEBDAC",
"P. c #BCBEB0",
"I. c #C0BFAB",
"U. c #BEC0B1",
"Y. c #C2C399",
"T. c #C8C3A6",
"R. c #C2C1AD",
"E. c #C1C0AE",
"W. c #C5C3AF",
"Q. c #C1C2B3",
"!. c #C4C3B1",
"~. c #C7C5B0",
"^. c #C4C5B6",
"/. c #C9C6B1",
"(. c #CAC8B2",
"). c #C9C8B6",
"_. c #CCC9B4",
"`. c #CECBB6",
"'. c #C7C8B8",
"]. c #C7CDBC",
"[. c #CACAB9",
"{. c #CCCDBB",
"}. c #CECEBD",
"|. c #D1CEB9",
" X c #CBD0BE",
".X c #CFD1BF",
"XX c #D3D1BC",
"oX c #D2D0BE",
"OX c #D3D1BE",
"+X c #D3D2BF",
"@X c #D4D3BD",
"#X c #D7D5BF",
"$X c #D2D4C3",
"%X c #D5D6C4",
"&X c #D9D9C5",
"*X c #D8D8C6",
"=X c #DEDCC5",
"-X c #D9DBC8",
";X c #DDDECB",
":X c #E1DFCB",
">X c #E0DFCC",
",X c #E1E0CA",
"<X c #E3E1CF",
"1X c #E0E2CF",
"2X c #E4E3CC",
"3X c #E7E5CE",
"4X c #E3E4D1",
"5X c #E6E5D2",
"6X c #E6E7D3",
"7X c #EAE8D0",
"8X c #EEECD3",
"9X c #E9EAD6",
"0X c #EBEBD6",
"qX c #EDECD6",
"wX c #EFEFD7",
"eX c #EEEDDB",
"rX c #F0EEDB",
"tX c #F3F1D8",
"yX c #F3F1DA",
"uX c #F6F4DB",
"iX c #F3F2DF",
"pX c #F3F3E0",
"aX c #F4F3E2",
"sX c #F7F6E4",
"dX c #F9F7E0",
"fX c #FCFAE2",
"gX c #FCFBE5",
/* pixels */
"                                                                                pX5X                                            ",
"                                                                              6XK...z.OX5X                                      ",
"                                                                            pX}. ...^.$X{.[.OX,X                                ",
"                                                                          rX[. . .U.$X1X9X4X%X[.[.$X>XpX                        ",
"                                                                          @Xo.Q G.U.h.=XwXtXyX8X,X$X{.[.$X0XiX                  ",
"                                                                        @Xo.Q A.^.k.k.[.wXtXwXwXwXwXqX4X%X[.[.$X4XsXaX          ",
"                                                                      $X..F ^ k.u.k.G.2XtXwX8XwXtXtXtXtXtX,XE.'.n.,.P.*XyX      ",
"                                                                  pX'.Q u :.1.u.y.A.&X-X{.%X<X9XqXyXtXqXwXU.3.M.A.D w k.0X      ",
"                                                                pX^.t w 2.3.n.n.n.[.P.o._ _ n.{.6X6X$X,X&Xp.3.U. . .D &XOX      ",
"                                                              qXK.w 8 A.^.u.<.n.[.$X_ W W W W H.-X X].-Xp.3.G.u. .r m.:Xc.      ",
"                                                            qXA.8 w A.^.k.1.u.^.$XP.<._ _ W W H. X].4XP.{ 3.H. .Q Q &XI.        ",
"                                                          E 7.9 t U.'.y.m.A.Q.4X1X$XP.n.3.:.n.$XH.%X0X;X^.P.o.:.e K.#Xf.        ",
"                                                      v c f f j R c.n.k.}.&X4X9X9X9X6X-X[.^.$XP.].5X6X4X9Xm.^ F  .2XD.g.        ",
"                                                    c c c g c f g k N } o.<.m.'.-X4X4X6X9X;X].].4X1X$X{.Q.!  .t @X#Xf.a.        ",
"                                                  n b b c c f f f c f k N Y ..>.u.K.%X1X6X$X].4X9X%XP.U...>.e w.7XF.t.a.        ",
"                                              uX@XU z c b c g f f f f d s k z U %.>.u.Q.;X1X1X9X;X'.Q.y.^ o.^ :X|.x.g.n.        ",
"                                            qX~.t Q ^ B m v f f f f f s s d f d j M ! o.n.%X0X0X;X[.G.Q o.t Q.,XD.j.a.M.        ",
"                                        pX,Xa.w < ^ y D 2.9.m f c f s s s d d f d s l M ] 2.=X0X1X%X .<.t 1.7X/.C.f.f.          ",
"                                      qXOXo.3 8  . .Q < 8 Q ,.R m f s s f d d d f d f f l N 9.|.%X3.Q ! t *X&XC.c.a.x.          ",
"                        5XqXaX    pX2XK.! >.Q y.P.<...4 - < 3 Q w.7.z f f f d d d d d f c c k T N.F  .w K.7XJ.C.c.t.z.          ",
"                        @Xa.,XyX4XI.o.o. .y.G.}.;XP...^ w 3 e w w ! +.U l x f f d f d f f f f f k z M ,.7X~.C.N.j.c.            ",
"                      qX7X&X%XQ.2.<.F ..u.U.&X;X^.%XA.o.:.r 8 3 - < ^ 1.,.B l c f f g f f f f f g c k T T.N.C.x.t.M.            ",
"                  5X*X{.K.,...<.o.2.3.m.}.-X.X].-X6X4XA.>...4 8 4 - 3 e u :.] B l f g g c f f f f c c f R C.N.x.n.              ",
"              qXS.^ F F >.>...y.m.$X.X&X.X X,X4X9X9X9X4XP.3.) 4 4 e < < 1 e i.L.F.7.m b b b g f c c f a R N.b.-.L               ",
"            L./.OX@.w ! i.m.Q..X$X$X$XU..X7XtXrX0X9X9X0X9X.Xa.Q 3 4 4 3 3 < e u.P.P.M.R m b c g c b d p 4.b.t.: V b.OX          ",
"            M.0 6.,Xk.o..X;X]. X;X$X-X6XyXyX2X}._.$X1X0X9X9X-XU.>.t 4 4 < < 3 w Q o.<.3.2.B l f f d a p 4.c.u + y F.%X          ",
"            ( > = Z #X#XG.[.%X&X;X&XqXuXuX}.! Q t r ^ A.1X6X<X6X;X^.1.F 8 < 4 F ..:.o. .o.:.F U m a i p 0.8., 1 q F.=X          ",
"            b.J * * 5 F.2XG.K.$X{.%X2XrXuXk.t t - 3 Q u >.;X4X<X5X9X4X$XK.y.o.o.o.o.! Q y Q ,.3XY.p i h 0.0 9 ` Z S.=XpX        ",
"            x.b.| : = ; [ ,X[.m.$XqXtXwXuXOXr u e 3 u Q e K.9X6X;X$X$X9XqX4X}.%X}.o.e u t ! &X8X4.i i h I , J #.A b.%X0X        ",
"            b.t.b.t.7 * = 7 &X,Xm.{.wXyXuXtX.Xo.! F Q ..t G.eX-XG.P.;X9X9XP.n.;XL.r e r D W.8X`.U i i h 5 y %.g./ g.#XqX        ",
"            b.b.j.b.x.V ; ; > _.6XA.Q.6XwXtXtX2XE.8. .o.n.4X%XK.Q.-X^.&X9X-X%XK.r 4 e r a.7X`.S.N i i % 6 Y 0.b.2.8.%X8X        ",
"            b.j.b.e.g.b.} > : : c.7XK.n.%XwXtXuXuXeX8X7X>X[.P.$X&XL.P.$X}.u.y.^ 4 3 8 @.:X=XS.S.h i $ : Z $.x.S.x.%.OXqXuX      ",
"          ,Xb.g.e.g.x.x.C.e.7 > ; ' ,X#Xm.'.6XwXtXtX7X}.[.|.&X{.P.}.$XH.Q F w r e 4 Q #X,XR.b.b.h $ % 6 Y 0.b.D.D.} `.7XuX      ",
"        eXG.6.t.e.6.b.b.0.C.D.J > = 5 /.0X[.K._.&X4X;X4X>X@X}.Q.Q.k.n.n.r y r r F F '.,XW.b.c.x.p $ : A #.t.D.R.I.%.I.7XsX      ",
"        ,X,.C.8.6.t.g.b.c.g.D.W.$.> = * C E.#X@X{.^.^.[.K.^.A. .Q t F u t r w D F Q.0X'.S.b.b.g.i # 6 Y 0.v.I./.W.w.b.2XyX      ",
"      :X[.t ,.#.6.6.c.g.g.b.b.C.E.j.5 ; = + + = S w.K.}.).u.^ r e F Q F Q D e  .[.0X{.D.C.C.c.4.% ; V | t.S.T.(.`.S.f.2XyX      ",
"    5X2Xh.8 e [ 6.6.t.j.e.t.J.C.c.J.S.A = : & O X . o + Z #X&Xo.e y ..n.G.I.$X5X&XR.J.F.B.x.x.| # 7 I 6.b.I./._.|.W.6.:XyXpX    ",
"    2X%Xt 3 1 L | 6.t.0.e.g.j.F.S.d.b.(.0.: = , & o . . . O t.7XH.I.8X7XP.,.( G [ c.~.D.B.h.j.6 * 9 I | b.I.(.|.|.{.8.%X8XgX    ",
"  :X2X).G u , Z } 6.6.0.6.t.C.c.S.b.g.F./.S.7 * , : + o X X X > A.|.&.@ X o * L 6.J.W.D.B.g.[ * > 9 J [ D.T._.@X#X%Xu.(.qXdX    ",
"  XX=X:X#X|.a.J Y Y 6.6.6.6.g.b.c.j.S.b.S.E.H.( & * 6 = O X . . . o X . + 5 ' &.J.W.E.D.c.0.5 > V Y #.6.b.(.R.I.I.@Xz.F.8XuX    ",
"@XI.Y V 5 V g.J.| Y } 6.| 6.g.g.v.t.t.R.S.h.A./.e.; @ , 6 & O X X o o & V ' I S.(.W.I.S.c.Y : 7 > 5 9 Z Z | S { Z I.E.a.7XuXyX  ",
"z.t.J , , , : , Z J Y } | | 6.j.t.j.g.v.J.b.r.S.W.b.9 @ = V 5 @ o O ; ] Y y x.(.W.W.I.b.a., 5 S 1 > > Z q u q { C z.OX%.=XtXpX  ",
"C.f.g.#.Z 0 7 5 > 5 Z Y } [ $.e.g.0.t.b.h.A.A.j.c.R.R.Y * & q Y 6 6 -.( 7 t./.`./.I.I.b.H > u ~ q u ) { { M.j.p.h.[.G.r |.yXsX  ",
"C.x.v.v.t.0.6.Y A V 0 J Y Y } 6.6.e.6.j.c.h.h.J.c.j.R.R.| , & 5 | -.J 5 9.W.(._.~.I.F.w.& @ - 1 5 q S G Q ! ! ! ! ! r w W.wXgX  ",
"c.c.b.b.t.t.t.e.e.=.[ J J J Y | 0.6.6.0.e.C.a.c.S.b.b.J.R.6.0 ; * * 5 0.W.(._._.~.I.I.V + @ = - 3 8 e u w e r ! o.! ~ 3 S.wXuX  ",
"  b.b.c.g.t.t.e.e.6.| [ Y J I [ %.6.} 6.g.a.n.c.g.F.R.j.S.R.d.Z H $.x.W._._.(.(.W.I.s.+ O + * * < < 3 1 1 1 8 w r 3 w 4 ..7XuXaX",
"  x.c.j.g.t.t.0.e.6.#.[ Y H Z Y | [ Y 6.g.g.0.c.c.g.F.I.c.j.U.S.I %.I.|._.(.(.(.I.I.C @ & = 1 1 8 w e w e Z ^ ^ X.%.w.,.c.8XuXgX",
"  C.j.j.g.e.e.0.e.6.#.| [ H V Z [ J I $.0.0.u.t.j.b.c.v.U.c.d.F.R.F.(.|._.(.(.(.W.x.6 q Y 6.f.C.G.I.~.J./.|.%X&X,X,X2X7X7X7X8XfX",
"  M.j.g.g.0.e.0.0.6.#.[ [ L Z u V A J | 6.6.,.j.w.c.S.x.c.G.C.d.S.|.|.`././././.I.#.S [ 6.t.x.C.D.J.J.b.D.E././.`.|.|.$X|.|.%XdX",
"    g.t.g.0.0.6.6.6.@.[ ' I Z y 6 u H Y 6.6.=.6.0.a.c.C.c.a.S.S.x.(.`.`./././.W.C.I ` ] %.=.8.w.8.6.6.-.w.w.f.f.f.f.f.f.s.2.s.  ",
"    a.g.t.0.6.6.6.6.@.] ( I Z y 6 6 V H } #.{ 6.8.t.c.t.b.h.e.B.E.`.`.`./././.W.=.L ] +.=.=.2.2.=.@.+.[ @.X.2.&.@.@.@.X.] ( K   ",
"    c.e.e.e.6.6.6.$.} I J H V 0 7 7 0 0 Y } [ | 5.6.j.j.e.h.c.d.D.|.`.(./.W.W.S.~ ( [ @.=.=.w.8.&.@.=.=.=.+.w.2.-.2.=.&.+.` (   ",
"      t.8.0.6.5.#.@.[ Y Z Z q 0 7 6 7 , 0 Y ` [ | 5.0.t.j.q.h.B.C.`.(.`./.W.E.#.L ] [ %.-.-.w.2.%.=.2.=.-.&.8.2.&.=.%.%.O.!     ",
"                        +.X.X.~ ` K C 2 2 Z J ` } @.0.6.0.a.0.a.R.(.`./.W./.c.J ~ ] X.@.-.-.w.2.=.%.2.=.=.&.8.-.&.&.&.&.O.L     ",
"                                              A ' [ $.6.6.5.t.w.N.(./.(.W.I.| Z ( ] +.%.=.8.8.2.-.6.=.=.%.2.2.&.&.&.@.@.] I     ",
"                                                J I | #.5.5.*.a.D.`./.(.W.x.V S ( ' ..%.=.2.8.&.-.6.=.=.@.,.8.&.&.&.+.+.] L     ",
"                                                  L Y [ %.| 6.-.C.(././.W.    X.( ( %.=.=.6.,.-.=.2.&.%.&.2.,.%.%.%.+.+.( L     ",
"                                                    ` [ Y { | 6.C./././.I.              +.=.=.2.2.=.%.%.@.2.&.%.&.X.+.] !       ",
"                                                      ` J ` { | x./.~.W.                        M.a.=.+.&.=.&.@.+.X.O.( S       ",
"                                                          L ` [ j./.W.Q.                                  X.=.@.@.X.] L L       ",
"                                                            L ] w./.E.                                            X.K (         ",
"                                                              L #.W.~.                                                          ",
"                                                                =.E.                                                            ",
"                                                                  E.                                                            "
};
