/* XPM */
static char *_723c38ffccf42519ee62ec379a85730oPkySllTwbXFTfP0[] = {
/* columns rows colors chars-per-pixel */
"64 64 115 2 ",
"   c None",
".  c #3F3D39",
"X  c #413F3B",
"o  c #43413D",
"O  c #474541",
"+  c #494742",
"@  c #4C4A45",
"#  c #4E4C48",
"$  c #514F4A",
"%  c #54524D",
"&  c #575550",
"*  c #585651",
"=  c #5D5A55",
"-  c #605E59",
";  c #65625D",
":  c #6A6761",
">  c #6D6A64",
",  c #716E67",
"<  c #726F68",
"1  c #75726B",
"2  c #79766E",
"3  c #7C7971",
"4  c #817E76",
"5  c #838077",
"6  c #85827A",
"7  c #89867D",
"8  c #8C897F",
"9  c #8C8980",
"0  c #918E85",
"q  c #949187",
"w  c #969389",
"e  c #99968C",
"r  c #9C998E",
"t  c #9E9B90",
"y  c #A19E93",
"u  c #A3A095",
"i  c #A7A499",
"p  c #A8A59A",
"a  c #ABA89C",
"s  c #AFACA0",
"d  c #B1AEA1",
"f  c #B5B2A5",
"g  c #B7B4A8",
"h  c #B9B6AA",
"j  c #BFBCAF",
"k  c #BEBBB2",
"l  c #C1BEB2",
"z  c #C5C2B5",
"x  c #C7C4B8",
"c  c #CAC7BB",
"v  c #CDCABE",
"b  c #CFCCC0",
"n  c #D2CFC3",
"m  c #D5D2C6",
"M  c #D4D1C5",
"N  c #D7D4C8",
"B  c #D7D4C8",
"V  c #D8D5C9",
"C  c #D9D6CA",
"Z  c #DAD7CA",
"A  c #DAD7CB",
"S  c #D8D6CD",
"D  c #D9D6C9",
"F  c #DBD8CC",
"G  c #DCD9CD",
"H  c #DDDACD",
"J  c #DCDACE",
"K  c #DDDACE",
"L  c #DEDBCF",
"P  c #DDDACE",
"I  c #DAD7D0",
"U  c #DEDBD0",
"Y  c #DEDBD1",
"T  c #DFDCD1",
"R  c #DFDCD2",
"E  c #DFDCD3",
"W  c #DFDDD3",
"Q  c #DFDCD1",
"!  c #E0DDD3",
"~  c #E1DED6",
"^  c #E1DFD6",
"/  c #E1DFD7",
"(  c #E1DED5",
")  c #E2DFD8",
"_  c #E2E0D8",
"`  c #E3E1DA",
"'  c #E3E1DB",
"]  c #E4E2DC",
"[  c #E5E3DE",
"{  c #E4E2DC",
"}  c #E5E4E0",
"|  c #E6E5E1",
" . c #E7E6E4",
".. c #E7E6E4",
"X. c #E8E7E5",
"o. c #E9E8E6",
"O. c #EAE9E7",
"+. c #EAEAE8",
"@. c #EBEAE8",
"#. c #ECEBE9",
"$. c #ECEBEA",
"%. c #EDECEA",
"&. c #EDEDEB",
"*. c #EEEEEC",
"=. c #EFEFEC",
"-. c #ECEBEA",
";. c #F2F2EE",
":. c #F3F2EF",
">. c #F9F7F7",
",. c #F9F8F7",
"<. c #FBFBF9",
"1. c #FEFEFC",
"2. c #FEFEFD",
"3. c #FFFFFE",
"4. c #FFFFFE",
/* pixels */
"                                                                                                                                ",
"                                                            K 7 q K                                                             ",
"                                                          ! 0 f z j i L                                                         ",
"                                                      ! 9 a z M N n v h k K                                                     ",
"                                                  K w a l v v l j z M n v a ] K                                                 ",
"                                                6 a j v v l f K K K l v V B z a K                                               ",
"                                            y t j v b c s K K K K K K V j v v v j p K                                           ",
"                                        K e d c b c j K K K K K K K K K K j l v N v g y K                                       ",
"                                    K 0 p c v v j K K ! K K K K K K K K K T K a c Z M v a M K                                   ",
"                                K 7 a l v v l ! U K K K K K K ! K K U K K K K K K h v V V z a K L                               ",
"                            K 8 p j v v z l K U K K K K K K K K K K K K K K K U K K K j v N v j p K I                           ",
"                        K S q h v v x d K K K X X 2 K K K U K k . U ! . S . . . . K K K K j b b v j i K                         ",
"                      K 0 d b b z h K K K K K . p X l K a X K K . . U . F . h . j K K K K K z z b b b h h L                     ",
"                  K e a l b c j K K K K K K K . f X z K . . K K . . a . U . ; d K K K K K K K K a c M v c a ! K                 ",
"              K 7 a l v v k K K K K K K K K K . p . - K X . j K . K . . K . r . K K K K K K K K K K g z n M j p K K             ",
"          K d p h z v j M K K K K K K K K K K X f X % % M v . K . K i . K . j . 6 K K K K K K K K K K K j b V v j a K           ",
"        ] e a c v c f K K K L K K K K K K K K 2 1 y V 2 d q 2 l 2 d K X K 1 2 K 2 v K K K K K K K K K T K K l v D v g e K       ",
"    K 8 a c n n x F K K K K K F K [ K L K K K K K K K K K K K K K K K K K K K K K K K K K K K K K K K K K K F v M K B z a B K   ",
"K 8 a j n V K n z l g j g g f l h d j h h j d h f l j f f g d f h j g h j h j f h l g h j f j j h j j f h g j c B K K M V z a K ",
"  a v M K K K M M M M Z F M D v D Z M M M M n n M V M V V M V V M n n V V M n n M v M M n B V M n M v B n M n M M K K K M V v   ",
"    M K K F K K F F F K K K K K K K K F K K K V K K K K K Z K K K K K K K K K V K K K V K K K F F K K K K K Z K K K K K V K K   ",
"    X.3.N n n n n M M n M n n n M K M n M n n M M n M V n n K n n K M n M V n M M M n M M n K n n M M M n n n n n n n n <.O.3.  ",
"        7 f h f d g h a h d a d h h d g h d h d h h f a h d h h f h h h a h a d h h f a g d h d f h h h a f a h f h d &.        ",
"          X.&.#.O.O.#.&.&.O.X.@.X.X.X.O.&.@.&.&.O.X.#.#.&.#.X.O.O.X.+.#.&.O.&.#.O.X.O.&.&.O.X.O.+.&.+.&.&.+.X.O.#.X.+.>.        ",
"        K K K K K K K K K K K K K F F K K K K K K K K K F K K F K K K K K K K K K K K K K K K K K K K K K K K K K K K K +.      ",
"              l j l l l j l . . X X X X . l j l l l h l l . X . . . . j j j l l l j j . . . . . . . j l k l l j j l             ",
"            c n v K V v n v l . . . . . z M v v F V x n v X . . . . . z v v V F v v v v . . . . . v v v v V K c v c             ",
"            n b z v b c v v v . . X + o c v n z v v D v v . . X @ & O n v v v b c V n c . X . + . c M V z v v x n v             ",
"              j M v l p l j . . . . @ & & l l F c h z j l . X o * & * l l n b j a k j . X & * * % X l j K c d d l j             ",
"              X.U v j a 7 . . . @ & & ; ; - X.M x j r 7 . . o & * : ; = X.U V j a 0 . . % * * * * o . ! K c h u 7               ",
"              3.! K j a 8 . . X % - ; > ; ; 3.K z h y 7 . o & ; : : : : X.' K l a 9 . + = ; : - : = * ! K c d w 7               ",
"                K K l p 4 . . X & ; , , < < <.Z z d 4 7 . + * : < 1 , : X.! K j a 3 . * ; : : : : : - *.K v a u 7               ",
"                H F l a 6 . . . * * 2 2 2 < *.M c d 4 6 . + = > < 2 1 > ..U K j a 7 X & ; > ; 1 > ; ; <.H v h p 8               ",
"                H Z j a 6 . . . * = 2 3 3 , 3.M z h 0 7 . + = > < 3 1 1 X.U K j a 7 . & ; 1 > < , > ; <.H v h p 8               ",
"                H H j p 4 X . . * : 3 3 3 3 3.V x d 0 7 . + = , 3 3 3 2 O.! K k a 6 X * ; 3 , , > 1 ; <.H v a u 7               ",
"                L H l p 4 X . . & : 3 4 3 2 &.V c a 0 7 X X = 1 3 3 2 3 X.! K l a 3 X * ; 2 3 3 3 2 > <.H v g u 8               ",
"                H L l a 6 X X X * ; 4 4 6 3 ,.K l a 4 7 . + ; 2 6 4 3 3 X.! U k a 6 o * ; 2 3 3 3 > > <.K v d p 7               ",
"                ! F l a 6 . . X * ; 4 4 3 4 ,.K z d 7 7 . + : 2 3 6 5 3 X.' K l a 6 o & > 2 6 3 3 3 > <.H v g p 7               ",
"                ` F h a 4 . X o * = 5 7 7 4 3.V c a 4 7 X X ; 3 3 3 5 3 X.' K j a 7 o * ; 3 3 5 3 3 ; <.L v d u 8               ",
"                ` F l a 4 . X @ * : 5 7 7 6 ,.M z d 4 7 X o ; , 4 6 4 3 X.! K j p 4 X & > 3 3 6 6 3 ; <.F v d u 7               ",
"                ! F l p 7 . . X * ; 4 7 7 4 ,.M c h 6 6 X @ ; 3 7 6 7 3 X.U U k a 6 X * : 4 3 6 5 3 > <.K v h p 7               ",
"                K K j a 6 . . . * : 5 6 7 6 3.M c h 0 7 . O * 3 7 6 7 6 X.U K j a 6 . * > 5 6 6 3 3 > <.K v d p 8               ",
"                K K j a 4 . . @ * : 4 7 6 5 *.V c a 0 7 . @ ; 2 4 7 4 4 X.! K j a 4 . * > 3 4 3 4 3 > <.K c d u 7               ",
"                K K j a 4 X . . * = 6 6 7 3 &.K z h 6 7 . X ; 1 6 7 4 3 X._ K j p 3 o * ; 3 3 4 3 2 ; <.L v g u 7               ",
"                K K j a 6 . . X * ; 4 7 6 4 3.M c h 4 7 X X ; , 3 4 3 3 +.' K j a 6 . * : 3 3 3 3 3 ; <.K v d p 8               ",
"                K K l p 7 . . @ * ; 3 7 6 2 <.M z h 6 7 . O ; 2 5 3 3 2 O.! K l a 8 . * : 2 2 3 3 3 ; <.K v d p 7               ",
"                K K j a 4 X . . * ; 3 3 3 3 3.V z a 4 7 . @ = 1 3 3 3 < X.' K j a 7 . * : 1 3 2 < > > <.K v d u 7               ",
"                K K j a 7 . X o * > 3 3 3 2 *.V z d 4 7 X + = > 2 3 2 < X.! K k a 7 . * - , 2 2 , 3 ; <.K v a u 7               ",
"                K K j a 7 . . o * = 2 3 3 < ,.K c a 6 7 X o = > 3 2 1 , X.U K j a 8 . * = > , < < ; ; <.L v d p 7               ",
"                ! K l p 7 . . X * = < 2 1 < ,.K z a 6 6 X o * 1 2 2 < > X.T K j a 3 O * ; > : > > > ; <.L v a p 8               ",
"                ' K j a 7 . . . * : < 2 , , &.S c a e 7 . X = > > < , : X.! K j a 7 O * - : > : , ; * X.L c h p 7               ",
"                ' v j a 7 . . . & ; : : : : X.V z j i 7 X o & ; > : , : X.) n j a 7 . + = ; : : ; = & X.H c h u 7               ",
"              | K v l g u 6 X . $ * ; : : ' K M z h i 8 X . $ - ; : ; :.| K v l g 9 8 # * - : ; ; ; X._ v c l p t 5             ",
"              { K c l d q 6 . . @ * ; ; ; O.K M c h y 8 . . $ * ; : - :...K v j a p 7 o = = ; = ; & X.! M x j a 7 4             ",
"            O._ K v j a q 7 . . X * = = * O.K n z l p r . X X - ; * * :.[ K v k a 9 7 . * * = = & % X.L D x l a e 3             ",
"            a d f h f d a d . . . * - = * f h f d a d h f X $ & * * & g g f a d g h d O + * * % & o d g g d a d f h             ",
"            K K L K K K K K d X o & * = K K K K K K K K K . X $ & * * K K K K K K K K K o & * @ # s K K K K K K K K             ",
"          K K K K K K K K K K K K K K K K K K K K K K K K K K K K K K K K K K K K K K K K K K K K K K K K K K K K K K           ",
"          V n M F M D M V D n M Z K V M F V K V M M N F F V K V K M N K M V n Z M K V K F V K V Z K N F F V K M K n V           ",
"        K K K K K K F F K K K K K K K K K K K K K K K K K K K K K K K K K K K K K K K K K K K K K K K K K K K K K K K K 3.      ",
"        M V K F M n D F F D n M V K V M M N K Z M M N F F N n M Z K V M M V K V M n N F Z B M M V K V M M V K V M n N F #.      ",
"    K K K K K K K K F K K K K K K K K K K K K K K K K K K K K K K K K K K K K K K K U K K K K K K K K K K U K K K K K U K K     ",
"  X.K K K K K K ! K { K K K K { K K K K ] K ] K ' K ) K K K K ' K [ K K T ! K K K K ! K T K L K K K K ] K ! K K K K ! U K K ..  ",
"    c c c c c c x c c c c z c l z c z c c c c c c c z c c z c z c c c c c z c c z c c c c c c l c l c c c c c c c c c c l c v   "
};
