/* XPM */
static char *_1068225aebe4f16e73e4f5095ad5e4dVdMAQtCj4GVbvLNs[] = {
/* columns rows colors chars-per-pixel */
"64 64 14 1 ",
"  c #18290B",
". c #132208",
"X c #111E07",
"o c #1B2A0F",
"O c #213311",
"+ c #1F2D13",
"@ c #17230C",
"# c #1C2F0D",
"$ c #0C1905",
"% c #243417",
"& c #2B3C1A",
"* c #273913",
"= c #324320",
"- c #071103",
/* pixels */
"*o$ X   $$Xo o.#.+&O$@X@X  Xo#+@@X+O XX%o.$O@.. %$$*OX @  o$$$  ",
"%Oo &#@=+$ %XXo$. OoXOO+  &O.oO+O.+o#.#Oo.+oO%+%X%o+OO &OX&%$$&@",
"$$%&oX$&&@&%#O&oo &@$*&+OO*o# O@OO$o&..@o@.oo$&=$%OX-+&OXX%=@%%#",
"$@&..X-%&=&%.#*&+O X *++*+.$ +X o@+=& -$&%o+. @%&X&XX&+X.-o%==% ",
"O@.@*%@%O%-&$-oOXo .& $#$$.@O&+O. OO#o@o%OOo-%%XO@o# ..O& %+&-O#",
"#..o=O@.&$@@ o*O.$#@X&ooO.o * O.-= $&o%&O#.@==O..o%#...=Oo$*.X@O",
"X @Xo&@.$-@@%%oX@+%@$*  $O#-+%# $. #$X&+o.X. +%X$.= .+X &+.X-@.+",
"+OO +@+o*+% O@@.+%%o %=+@  $O#X#*@ +@@#OX$+*XoO*XO* O* +@+oOO%o ",
"=*.O#@$XOO&ooO=%+& o  $X*OO@o.*.&*Xo@%..Xo*O++X&o X*=.## X$+O*%.",
"#oo$+%@.X#XX+ .$@oO+o+&&Oo+%oo#.$* #=&.* +o.+$o#Oo@#o#$@*o@Xo.X@",
".@oOO o..%*@O $# +O ++*o XXOoX. $+* X+%&*X. ++ $ . .@oOO   X+*o@",
" o@##&&OOo=@O#@oO o@oX .@ O*o.+=o..+o. .o. O +o.%#  o@##&&%Oo&+ ",
"#$+ .%o$+ O$%Oo&@ X. ###%  +%%O%%.X+  XOOXXO+O+o%OX#$o#.%O$+@*$+",
".X.o*@o$oO#X$O+ $oO@@.O $@@. X+&#$@X@@+.  .*& $@..@ .X@O@ X@OOXX",
"%&.o+%+o oO.#O+.o#OO+&X+&$.o$. O@X%*+o$@ $  O@@*%o o= @o%o#.o+  ",
"&oo#+  O $=#X@ +.@+$+=o@% *&o #&XX&*+*#&*+ O*$.&O%O*+o#o#.O#-&%.",
"@XXO.@#.o==+X-+&o%@.o@=X% o*&o%X.OOoOO #*&oOX.O#oOOoX$+o.#@@&=%.",
".X%*%+ @#o++@+OO#o$@=X o X-O+$o @&..o$--%oX#@ &$  $XX+*&+o.##o%@",
"o #O #-%*-OO+&%#.$&=%...%+#*oXX+@.&@##@%* XXOXo&@Oo@+o*@O-@&$ %o",
"*-.&o#XX #.-&%+...@@% $X%&O@Xo%%$X*# $+%X.+%+- *#.X*X$&+#.X@##-o",
" X@*X &o.oo@ O $@&  o* .* @oo+%%##%&@@.@ o+*+##&&@@ .$*. *%. +@ ",
"&@oX* @&@@ % .X *O%+XOOo.o*=+%*@+@@- *o*&+%%.+@@-#%*oo.#OX&o@o+O",
"#+%ooo-oO *=.%O +X+.o Ooo@@X$.oOo+%&=o@@$X +Oo+%&=@+o%o#o$X* O=%",
"$#+X$#$ *OXX&O&.@ #+ X. .#.X#++O@o+O @ X.#+++@oOO @X %.$o..%*X$+",
"O*+o =*.$++... @XOo++o+O ##o#+  @@X @ O o+  @@@@   #O%o =&@X % X",
"#@OOOO%o$   XO#. .oO#o *.#oO&XO.O .o .#O &o$XO  XOo# %O#%O#$ +..",
"@..X *%$@@@.+*o.    .$-X+@@.@.O&+$@.@X%*..@#  X$-oo.@...*&.X@@.o",
"X+XX #+XO*O O+#o*& o=+-%%$.+$@ O@.**+ Oo+o&%X&=@$&@$o@$ o+. *Oo ",
"*=O+ &o-O&+*#-X&*XX$&&+&#O&&+ #&$X&%+*.-+&#$$.=+&*#O=*+ *%- &+%O",
"X#&+% $+O@o##.o&$ X$%&=+*$@O&o%$@*#@## .O+$#-o%==%o-o&%++$o*@o##",
"-@OXX#.O+X+X O..+&%o#&.$O$-%o$ o.*@ o$Oo.@%&+oO&-o#-X*@$#@o%X#@$",
"#*O@X +$%+@## @.o&O$ #$@@#O*oXX+X.&.###@ X%*#$O@X@+#*O X.+$+%.O ",
"%o$o%&@-*OO$.$+@.o%o@$$ @%OXX+%%$.*O $.XO.@%+o.-@.+%+$@+&+-#*OX.",
" +++%%+O+&o@.&*#+#@oo=O&o#@+o+*+O#%%@@o&OoO   %&%%ooo+++*oO#&O@@",
"O&++*+ @@XX*+&O.#o $X #+.o*&o%% o.@$ *#&  #o.$.o#+.O&%o%O o@@$*O",
"..$. O+++=&%.#+#$%O@.@#.@+.XX.oOo+%=&  o+.@%o@Xo XooX$X@+O++&&&X",
" $oO+% o@O @ .@o*+@+.@%&.%.X#O+%.ooO.@.@@O*o +Xo&O@O$ #+Oo @Oo@@",
"# O+  .o@ @o#oo  #&%OO#&.*#o%#..oo..@ #@o# %&%Oo*O *@O% ..+@..o ",
"* #*X$#o@X +#  *X+O+.Xo $#++%X+.X@+O#o#$XO.+O$@ *X@O+%#.#XXoO#+@",
"*O. oO.oX$X+@@..X+*O$@.@@ *o Xooo  +@$.o..Oo@ .%O@$ * .@#o+.#+XX",
"o +%= @=%$O%XXOX@ #oX%*+  O X+#Oo+=-%*O=# @*+O.@+# OO..+#O@=%$=O",
"-$&*X$-%=%=O#&=%+ &.$**+& X+%. oX%=+@OO @#  XOOX&&X$@%+.o.@&=X+#",
". OX  $%+= &$$O&o%XX*#.oo.-%%+%$.+@=$%..$oO@O.X&=Oo$.%+O+$o@O%X&",
"O.X+=%o & -O.-O#XX#.O+@+.@&*Oo@X*&. +o.X+&%+ X*  %@%**O .@=+.ooo",
" @..%%.X#$@@OO*#..#@$&@ #+%O XX==%XX.%%#X* O$X*..#o&%+ $o=&oXXo&",
"Xo+. %+oX$ .O+X$+%*XX**#$O%oX@ X@&#$.&*X-*O o.X O-@&O@.  $+%.$#&",
"&*#+#.o =*&+# %O+*++#+%@o.#X$#& +@*@#+  XO@ +&@.+@o #$X** +o*XOo",
"%O. ooXX@#o.oO&@%%oo@@X & .XO&#%@X%*oX=O+@ *$%*X+*%.X@**O+..*O@.",
"#+OX+O @@O .+.$X.oOoO%=&+$=O.@X+@+.# o#@%oo X-%O#*%+= @..+@o.#@ ",
"X@@*Oo+ .O&@O XoO+%.@@O.@ o%@@##+@$o  X O@-o+.+*@$oO+O.oO+o.X#. ",
"#@o  &%+% &X*Oo%+@X +@.@+X oXX+ +%o%*. O*+#&=o$.%o..o X oo%%@%#.",
" -o  + -o#O$oOoOX#oXX#O#@@* .o. O@@@O.#. O O%%..@.X@Oo$.* X #* X",
" #.@%@o.+O#XXO+ . o++ # Xo*#. O  oX- +X@.X.+&.$+ @o#*o @oo%@+ @@",
"&&.oo%o#.X% #+oXo#O o=$+&o@o+&O.+=o$&+Xo+X #O@ &*+  O..+#O.=%$=O",
"OX #oX %oo=+$$o&@@oX+&&X%.-o= $$$&&=&+O=&% O%$ &+**..&+.+.@%=@+O",
"@X.%o+#$ =%+@-OO#%$$%X&.+#  o$OX@+==@*-$*%oO$o&X@  $.%+%+-#@#%X%",
"X.&*%o$+O$%O@&**#.@%= .+oO#..&&O O&-@o$X* $.+.%oooX+&*O.@+=O. oo",
"O@@O O-oOX .%%+ X$%=%.XX%%. X %%$ .X@oO*O . +$@*X#@%%#.$o=&oXX &",
"#-@&@ #X.O -%*#X@#.$%OXX&O$%@ +++ X@  Oo$.%*%$ &&.XOO.Xo $+% $#=",
"#@@+ #&*.@@o  .$ &oO@%o +o=O+O ..O&*&o#+&++* Oo+@@o. $X**o+ *.O ",
"&@+X* X&o@O&@.X+&#%@X+*o.oO#.@+o$X. @X+O+@%+oo@o@*O .@*O++X@*O@@",
"X+%o.o-.*O#*+&&.@$ooo. o@oo+#@%  XoO @OXX@@+Oo+&&&Xo= @X.+o#. @#",
".#+$$%o O+@$%@O @+O+@Xo#  .@#*O+%.o*&.*X@#O#O.@o . .o+.oO+o.X# @",
"OOOOO=%.$+% $ o.X+ +Ooo*.# o#.O&+%##O@*o+%@.$oo..o .#@$  o+%@* ."
};
