/* XPM */
static char *_12795012af9475b9be57a6bfdd26805nozpQIJCtPMCWvIS[] = {
/* columns rows colors chars-per-pixel */
"64 64 213 2 ",
"   c None",
".  c #030202",
"X  c #0A0A07",
"o  c #1A140C",
"O  c #0C0C13",
"+  c #12121B",
"@  c #191A19",
"#  c #110E0F",
"$  c #26180A",
"%  c #351E0D",
"&  c #36220F",
"*  c #2B251C",
"=  c #3E2B11",
"-  c #25200A",
";  c #191A26",
":  c #1A1B2A",
">  c #161823",
",  c #172738",
"<  c #272728",
"1  c #3A3326",
"2  c #232433",
"3  c #242539",
"4  c #292B3D",
"5  c #272A3A",
"6  c #3C3A3C",
"7  c #32312E",
"8  c #443813",
"9  c #5D3E1B",
"0  c #462911",
"q  c #653E1F",
"w  c #473A2A",
"e  c #615A1C",
"r  c #74471F",
"t  c #63611C",
"y  c #57422E",
"u  c #5A4A35",
"i  c #5F533D",
"p  c #4D4432",
"a  c #744E21",
"s  c #64533D",
"d  c #745134",
"f  c #6D4F30",
"g  c #767422",
"h  c #5C591A",
"j  c #1C354C",
"k  c #1A3B53",
"l  c #292940",
"z  c #2D3141",
"x  c #213548",
"c  c #303245",
"v  c #35394B",
"b  c #233E55",
"n  c #3A3E53",
"m  c #1C435E",
"M  c #294258",
"N  c #3E4359",
"B  c #1D4866",
"V  c #244A69",
"C  c #255577",
"Z  c #2F4F6A",
"A  c #41455D",
"S  c #454D53",
"D  c #534F4F",
"F  c #695B43",
"G  c #785C42",
"H  c #71644A",
"J  c #7E6448",
"K  c #7D6E51",
"L  c #6F6248",
"P  c #464A63",
"I  c #484D66",
"U  c #4A4F68",
"Y  c #5E5F65",
"T  c #5C6973",
"R  c #6E6E6F",
"E  c #FC393B",
"W  c #895C27",
"Q  c #8F582C",
"!  c #9D6A2E",
"~  c #96642B",
"^  c #9F6739",
"/  c #927132",
"(  c #A5672E",
")  c #A56B36",
"_  c #AA7334",
"`  c #B77B36",
"'  c #C26D31",
"]  c #CB7534",
"[  c #D77A35",
"{  c #885F43",
"}  c #876749",
"|  c #916A4B",
" . c #877758",
".. c #977753",
"X. c #9A794B",
"o. c #A37D59",
"O. c #A7744E",
"+. c #887A60",
"@. c #F16B5A",
"#. c #908529",
"$. c #B5A935",
"%. c #AD9632",
"&. c #C7863A",
"*. c #D58C3D",
"=. c #DA963E",
"-. c #E6823A",
";. c #E8833A",
":. c #EB8C3E",
">. c #93815F",
",. c #B18553",
"<. c #9A8763",
"1. c #908775",
"2. c #B78B65",
"3. c #A9946D",
"4. c #A79168",
"5. c #B99369",
"6. c #AD9971",
"7. c #B49E74",
"8. c #A48E67",
"9. c #BBA579",
"0. c #BCA67A",
"q. c #DC9441",
"w. c #C58E50",
"e. c #E89B43",
"r. c #F19341",
"t. c #F59A44",
"y. c #F89E45",
"u. c #F5A346",
"i. c #FCA648",
"p. c #FFAB4A",
"a. c #F9A447",
"s. c #FFB34A",
"d. c #FFBC4A",
"f. c #EFA045",
"g. c #C6966B",
"h. c #D09165",
"j. c #EF9B73",
"k. c #C2AB7E",
"l. c #C1A675",
"z. c #D8A877",
"x. c #C7A16A",
"c. c #E6A272",
"v. c #E7AC7B",
"b. c #EAB17F",
"n. c #F0AC7A",
"m. c #FFC34A",
"M. c #FFCB4A",
"N. c #FED84A",
"B. c #EFCD45",
"V. c #FFE34A",
"C. c #FEEB4A",
"Z. c #FFF34A",
"A. c #E6E143",
"S. c #2B5D83",
"D. c #275D83",
"F. c #2B638B",
"G. c #2C6187",
"H. c #2D6A94",
"J. c #2C6B97",
"K. c #306E99",
"L. c #306A94",
"P. c #32719D",
"I. c #347AAB",
"U. c #3677A6",
"Y. c #357EB2",
"T. c #387EB0",
"R. c #4F7592",
"E. c #677681",
"W. c #657F96",
"Q. c #4C7CA1",
"!. c #3781B5",
"~. c #3B85BA",
"^. c #5D93B7",
"/. c #3D8CC4",
"(. c #3E94D0",
"). c #4193CD",
"_. c #459DDC",
"`. c #4599D4",
"'. c #659EC7",
"]. c #47A2E2",
"[. c #49A5E6",
"{. c #4AA7E9",
"}. c #4BA9EB",
"|. c #69A0C7",
" X c #8E9090",
".X c #969EA3",
"XX c #B1AEA9",
"oX c #C6AE81",
"OX c #CFA880",
"+X c #CCB384",
"@X c #C7B081",
"#X c #D3BB8A",
"$X c #D6BD8B",
"%X c #EDB582",
"&X c #F2BB85",
"*X c #F8BF88",
"=X c #DBC18F",
"-X c #DFC591",
";X c #FEC48C",
":X c #F6C48E",
">X c #E1C693",
",X c #E8CD98",
"<X c #F6CA93",
"1X c #ECD19C",
"2X c #F2D59E",
"3X c #F7D69D",
"4X c #F6DAA1",
"5X c #FBDDA3",
"6X c #F6DBA8",
"7X c #FFE1A6",
"8X c #FFE4A8",
"9X c #FBE6B9",
"0X c #F8E8C9",
/* pixels */
"                                                                                              X .                       .       ",
"                                                                    = 9 a W ~ ! ! ! ! ! ! ) ~ &                     $ 9 9       ",
"                                                              9 ~ &.q.u.i.p.p.p.s.p.p.p.u.&.9 X           & 8 9 W ) *.i.=.$     ",
"                                                          r ` t.p.p.p.p.p.p.p.p.p.p.p.i.q._ ! ` _ ` ` &.&.q.e.a.p.p.p.p.s.e     ",
"                                                      = _ u.p.p.p.p.p.p.p.p.p.p.p.p.p.p.p.p.s.p.p.p.p.p.s.p.p.p.p.p.p.p.s.#.    ",
"                                                    8 &.p.p.p.p.p.p.p.p.p.p.p.p.p.p.p.p.p.p.p.p.p.p.p.p.p.p.p.p.p.p.p.p.s.%.X X ",
"                                                    &.p.p.p.p.p.p.p.p.p.p.p.p.p.p.p.p.s.d.s.s.i.p.p.p.p.p.p.p.p.p.p.p.p.s.$.#.h ",
"                                                  W p.p.p.p.p.p.p.p.p.p.p.p.p.p.p.p.p.p.s.m.M.M.s.p.d.V.d.p.p.p.p.M.s.p.s.A.V.g ",
"                                                  &.p.p.p.p.p.p.p.p.p.p.s.p.p.p.p.p.p.p.i.p.s.M.V.m.m.C.V.m.p.p.M.Z.N.p.s.m.N.g ",
"                                              a _ y.p.p.p.p.p.p.p.p.p.u.f.f.u.i.p.p.p.p.p.p.p.p.d.V.Z.N.M.V.d.N.C.N.V.s.p.m.Z.t ",
"                                          a &.u.p.p.p.p.p.p.p.p.p.p.p.` 4.z.x.g.,.=.=.f.u.s.p.s.p.s.N.d.p.V.Z.V.d.s.C.d.N.Z.A.= ",
"                                      & _ p.p.p.p.p.p.p.p.p.p.p.p.p.p._ =X7X7X5X3X,Xk.5.,.&.=.u.p.p.p.p.p.m.N.s.p.s.C.Z.V.C.$.  ",
"                                    $ ` p.p.p.p.p.p.p.p.p.p.p.p.p.p.a.} ,X5X7X7X8X8X7X7X3X-X9.,.O.=.u.p.p.p.p.p.p.p.M.m.s.B.t   ",
"                                    W p.p.p.p.p.p.p.p.p.p.p.p.p.p.p.] ..5X8X7X7X7X8X7X7X8X8X8X5X>X7.X.` e.s.p.p.i.e.&.p.d.#.    ",
"                                  $ *.p.p.p.p.p.p.p.p.p.p.p.p.p.p.q.Q $X8X7X7X7X7X7X7X7X7X7X7X7X8X8X2Xk..._ =.*.,.l.} =.#.      ",
"                                  & ;.p.p.r.y.p.p.p.p.p.p.p.i.t.[ Q 7.6X7X7X7X7X7X7X7X7X7X7X7X7X7X7X7X8X7Xk.4.k.2X8X>.0         ",
"                                  0 ;.i.:.;.y.i.:.p.p.y.t.:.[ ~ | +X7X5X7X7X7X7X5X5X      5X5X8X7X7X7X7X7X8X8X8X7X8X6.          ",
"                                  % [ :.:.;.:.:.;.:.p.i.y.] y @X4X8X7X7X7X7X7X7X5X5X7X        5X7X7X7X7X7X7X7X7X7X8X9.          ",
"                                  # ' [ r.[ :.;.[ ;.t.p.i.( } 7X8X7X7X7X7X7X7X5X7X7X7X7X8X5X    5X7X7X7X7X7X7X7X3X7X3.          ",
"                                    W [ [ ' ( ) O.( [ :.:.W 6.7X7X7X7X7X7X7X7X7X7X7X7X7X8X8X5X5X3X7X7X7X7X8X3X    7X .          ",
"                                    $ [ ( } #X1X1X#X..( [ d ,X7X7X7X7X7X7X7X7X7X7X7X7X1X+X4X5X8X7X7X7X7X7X5X5X7X7X5XF           ",
"                                      & u 3X5X:X:X3X7X4.q <.7X7X7X7X7X7X7X7X7X7X7X8X=X1.XX .5X8X7X7X7X7X7X7X1X1X7X,X1           ",
"                                      . K 8X*Xc.c.c.3X7X>.>X7X7X7X7X7X7X7X7X7X7X7X8X .Y  X7 1X7X7X7X7X7X7X#XXX X,X9.            ",
"                                        F 6X<Xv.c.c.<X8X3X5X7X7X7X7X7X7X7X7X7X7X7X8Xs . . * 2X8X7X7X7X7X8X .7 * +XK             ",
"                                        o 0.8X<X&X:X4X7X7X7X7X7X7X7X7X7X7X7X7X7X7X8X<.. . <.8X7X7X7X7X7X8XK . 1 +X1             ",
"                                          * 6.4X8X8X8X7X7X7X7X7X7X7X7X7X7X5X7X7X7X7X4X7.9.5X5X7X7X7X7X3X7X$XL oX9.              ",
"                                              1 F H 9.7X7X7X7X7X7X7X7X7X7X7X7X7X8X7X7X8X8X7X7X7X7X7X7X4X4X7X7X8X<.              ",
"                                                    * 0.8X8X7X7X7X7X7X7X7X7X7X7X5X5X5X8X5X8X7X7X7X7X5X5X  4X7X7X .              ",
"                                                      o ..6X8X7X7X7X7X7X7X7X7X7X5X5X  9X8X7X7X5X7X7X5X  4X7X7X4Xi               ",
"                                                          p 0.7X8X7X7X7X7X7X7X7X8X5X      0X0X0X8X5X5X7X7X7X8X=X*               ",
"                                                              s oX5X8X7X7X7X7X7X8X8X4X@.E       6X5X7X7X7X7X7XK                 ",
"                                            G ..o...{ < C D.m   X w 4.>X5X8X7X7X5X5X5X5Xj.@.O.OX7X7X7X7X8X7X<.                  ",
"                                      d 2.z.&X;X*Xn.w.Z Y.!.J.M V M d s F <.OX2X7X8X8X8X8X8X8X8X8X8X8X5X$XH                     ",
"                                  s g.&X;X;X;X;X*X%X} H.Y.S.F.)./.U.T 2.o.* X * p H <.3.9.oX+X+Xk.6. .u                         ",
"                              } ,.%X;X;X;X;X;X%X%Xh.D H.C T.].{.[.~.I.P.R.C                                                     ",
"                          w 5.*X;X<X;X;X:Xg.G       > C ).}.[.[.[._.U.P.).!.,                     F <.i                         ",
"                      y g.OXo.5.*X;X;Xv.}           G._.{._.].].[.[.].U.L.`.m               H 3.0.7X8X1X .1                     ",
"                      y &X;Xz.d 5.*X;XG           K.].{.[.).).].[.[.[.[.U.G.k               -X7X8X7X7X7X7Xk.@                   ",
"                        ,.<Xz.| ;X;X%Xs         K.].{.[.[._.K._.{.[.[.[.{.G.X               #X7X7X7X7X7X7X7X4.                  ",
"                          } b.5.| 5.G         K.[.{.[.[.[.{.~.L.].[.[.[./.S | u           u k.7X7X7X7X7X7X8XoX                  ",
"                            u }             F.[.{.[.[.[.[.[.[.K.U.[._.P.D h.n.3X=Xk.0.@X>X5X7X7X7X7X7X8X7X>XH                   ",
"                                          C _.{.[.[.[.[.[.[.{.].H.G.b } c.b.3X7X7X8X8X8X7X7X7X8X7X5X2X>X7.F                     ",
"                                        , /.}.{.[.[.[.[.[.[.[.[.].).U.Y 5.1X8X8X8X8X8X8X8X7X2X=X9.8.                            ",
"                                        + b I._.{.{.[.[.[.{.[.[.[.{.}._.~.E.<.@X#X=X$X#Xk.3.                                    ",
"              R T                       , c 2 x S.~._.[.{.{.{.{.[.[.[.[.}.I.                                                    ",
"            R |.`.H.                    4 U P n 4 3 j V L.~.).].[.{.}.}.}.P.                                                    ",
"           X|._.[.U.; +                 : N P P P A n c 5 3 , x V Z S.S.S.j                                                     ",
"         X|.].[.F.z A N ;               4 P I I P I I I P P A N v c c c 3                                                       ",
"      .X'.].[.F.z P I I A 5 +       5 N P I I n v U U I I I I I I P I P 2                                                       ",
"    .X'.[.{.!.4 P I I I U I N v N A I I I I n > 2 v A P I U I I I P n 2 >                                                       ",
"   X|.[.].).x A U I I I I I U U I I I I P v           2 4 c c 4 l 3 2 3 l 3 : O                                                 ",
"  c C C m   + c N P I I I I I I I I I A 5                     O > 3 l l l l l 3 :                                               ",
"                  5 v S P P P I P A c ;                           O : 3 l l l l l :                                             ",
"                        2 5 4 4 5                                     + 3 l l l l l >                                           ",
"                                                                        + l l l l l 2 X                                         ",
"                                                                        . 2 l l l l l +                                         ",
"                                                                          : l l l l l ;                                         ",
"                                                                          : l l l 3 3 :                                         ",
"                                                                          ; l 3 , x V G.J.F.C j                                 ",
"                                                                          + , V H.I.~.~.Y.Y.U.R.4                               ",
"                                                                          : J.!.Y.Y.Y.T.Q.W.E.D                                 ",
"                                                                          k Y.Y.U.R.R.E.Y S                                     ",
"                                                                          x R.R.T Y 6                                           ",
"                                                                          c w                                                   "
};
