/* XPM */
static char *d542fdf5fad241b5d222fe6f4a0abdd5cERABF2XbHBoj8UY[] = {
/* columns rows colors chars-per-pixel */
"64 64 170 2 ",
"   c None",
".  c #040404",
"X  c #070906",
"o  c #080907",
"O  c #060709",
"+  c #090509",
"@  c #0C0C0C",
"#  c #100F0E",
"$  c #0F110F",
"%  c #11110F",
"&  c #0D0F12",
"*  c #110E11",
"=  c #141414",
"-  c #191617",
";  c #161816",
":  c #191917",
">  c #161719",
",  c #181718",
"<  c #171A1B",
"1  c #1C1B1B",
"2  c #1F211F",
"3  c #22211E",
"4  c #221F21",
"5  c #1F2021",
"6  c #242423",
"7  c #282624",
"8  c #262825",
"9  c #2A2927",
"0  c #2C2C2B",
"q  c #312F2E",
"w  c #2E312D",
"e  c #33322E",
"r  c #2D2F31",
"t  c #2F3230",
"y  c #333432",
"u  c #383633",
"i  c #363935",
"p  c #3A3A36",
"a  c #363738",
"s  c #383638",
"d  c #3C3D3A",
"f  c #403D3B",
"g  c #3E413D",
"h  c #42423D",
"j  c #49443F",
"k  c #444442",
"l  c #494742",
"z  c #464945",
"x  c #4B4B45",
"c  c #474748",
"v  c #4C4D4A",
"b  c #514E4B",
"n  c #4E514B",
"m  c #515047",
"M  c #53544D",
"N  c #59564E",
"B  c #56594F",
"V  c #59584F",
"C  c #524F52",
"Z  c #4F5150",
"A  c #545651",
"S  c #585750",
"D  c #565A55",
"F  c #595A53",
"G  c #575C58",
"H  c #5A5C59",
"J  c #615E56",
"K  c #615E58",
"L  c #5F615C",
"P  c #626357",
"I  c #63645D",
"U  c #68675E",
"Y  c #66685E",
"T  c #6A685F",
"R  c #646561",
"E  c #686660",
"W  c #666962",
"Q  c #6B6C64",
"!  c #6B6C6A",
"~  c #706E65",
"^  c #6E7166",
"/  c #6E716A",
"(  c #737266",
")  c #73746C",
"_  c #7A776D",
"`  c #76796E",
"'  c #79796E",
"]  c #706F70",
"[  c #757673",
"{  c #767970",
"}  c #7B7C73",
"|  c #7C7C7A",
" . c #817F75",
".. c #7E8176",
"X. c #7F8179",
"o. c #828276",
"O. c #83847B",
"+. c #89867C",
"@. c #86897E",
"#. c #8B8B7E",
"$. c #848582",
"%. c #868982",
"&. c #8F8D81",
"*. c #8C8B84",
"=. c #8D8D85",
"-. c #8E8D84",
";. c #8C8F84",
":. c #8B8C82",
">. c #898989",
",. c #8B8B8B",
"<. c #8D8D8D",
"1. c #8E8E8E",
"2. c #8D8D8B",
"3. c #918E83",
"4. c #938F83",
"5. c #918E83",
"6. c #8F9085",
"7. c #8E9286",
"8. c #8F9387",
"9. c #8E9186",
"0. c #8F9289",
"q. c #909080",
"w. c #919181",
"e. c #919387",
"r. c #949085",
"t. c #979387",
"y. c #949484",
"u. c #929284",
"i. c #909188",
"p. c #919388",
"a. c #939388",
"s. c #959288",
"d. c #969388",
"f. c #909488",
"g. c #929488",
"h. c #97968E",
"j. c #93948B",
"k. c #989488",
"l. c #999589",
"z. c #99968C",
"x. c #979A8F",
"c. c #989888",
"v. c #989889",
"b. c #909090",
"n. c #929292",
"m. c #949493",
"M. c #959891",
"N. c #989990",
"B. c #989898",
"V. c #9D9D9D",
"C. c gray62",
"Z. c #9B9C9B",
"A. c #A09FA0",
"S. c #A0A0A0",
"D. c #A6A5A6",
"F. c #A7A7A7",
"G. c #A3A3A3",
"H. c #A9A9A9",
"J. c gray67",
"K. c #AFAFAF",
"L. c #ABABAB",
"P. c #B0AFB0",
"I. c #B1B1B1",
"U. c #B2B2B2",
"Y. c #B7B7B7",
"T. c #B4B4B4",
"R. c #B2B2B2",
"E. c gray73",
"W. c #BCBCBC",
"Q. c #C3C3C3",
/* pixels */
"                                                                                                                                ",
"                                                                  I.T.                                                          ",
"                                                            C.[ A k x ! $.D.                                                    ",
"                                                        ,.A 0 : - y a 4 1 q G n.                                                ",
"                                                  C.! k 6 $ 3 p J } } K s = @ 7 b 1.                                            ",
"                                            Y.$.A y = @ 8 x (  .3.d.j.*.} K y = X 7 A >.                                        ",
"                                        Z.! h , . O 8 x { *.k.k.k.4.i.%.O.*. .J y = X 1 A 0.E.                                  ",
"                                  Y.$.k 4 @ + 4 f K } @.{ ` o.t.k.s.4.O.{ t.k.4.o.T u = X < e ^ L.                              ",
"                              I.$.k 1 @ $ 9 M (  .O.} } ( ..#.u.a.a.0.9.9.u.y.r.4.#.o.P g % X % 0 ! D.Y.                        ",
"                          L.[ g 1 X o 9 v ) +. .( Q _ +.#.9.:.8.a.0.0.9.y.#.&.@.+.#.#.#.o.P g $ . - r f k ! P.                  ",
"                      H.] a $ . o 7 v { %.} ( ( } +.+.+.o.} ..8.7.8.9...' ' o.+.#.y.#.y.#.#.#.Y p q q - + = k V.                ",
"                    n.d = X o 8 x  .*.h.h.*.+.+.o._ } ' ` o.#.@.` ^ ^ ^ ..#.+.#.#.#.#.#.#.c.#.#.o.o. ._ k @ @ 9 >.              ",
"                Y.[ y = @ e D } %.z.z.d.4.#.o.} _ (  .#.#.o.( Y Y ^  .+.#.k.#.#.#.#.@.#.#.#.#.c.y.u.g.h.@.d = + 8 / I.          ",
"            P.[ d > = i R X.O.%.i.j.4.O.} } +.*.3.+.o._ Q Q Q _ o.#.k.c.l.#.+. .( _ o.#.c.#.#.8.y.h.h.g.h.O.G 1 & ; c S.        ",
"            [ @ = k ! X.2.j.*.+.O.O.....#.&.4.#.o._ Q U ( ..#.#.#.#.c.#.+.T J P ( o.#.8.f.8.8.f.j.0.0.a.h.a.%.{ d $ X 9 0.      ",
"            H . > S %.j.0.0.a.%.O.#.#.4.*.#.#.o. .o...#.w.u.w.&.#.#._ U U U  .o.+.o.@.y.f.c.f.x.h.g.9.X...=.d.e.| M > X 8 $.    ",
"          D.d + 1 s H _ O.O.#.4.4.4.&.:.#.@.:.:.0.9.9.g.g.g.j.%.! I K Q } :.g.g.4.Q ! e.0.j.h.h.=.o...{ @.y.w.4.#.} M w X w G.  ",
"          >., + 0 x f j H U U ~ } o.o.@.u.#.:.g.j.0.8.8.9.X./ W ( } #.w.y.v.j.h.a.*.%.0.0.a.9.o.} ` @.9.6.#.' J x b L B $ < V.  ",
"          ! + + e M j e f N N V J H I I ` X.:.g.j.j.8.:.` Q ) :.0.h.c.c.c.c.g.g.g.j.a.0.=.o.' ` ` ..@.9...P x j N } o.S @ 7 H.  ",
"        P.c O + e M S l q q x N N N D G L W O.g.x.f.9...^ ` O.M.x.h.c.c.c.v.j.g.a.a.2.:.| ) ^ ) ..@.@.Q M j P ..#.t.:.g X 0     ",
"        ,.6 O = i Z A B m d p h l m M B M S L / X.O.{ ..X.O.g.h.h.g.h.h.z.z.j.y.e.*.} Q ! |  .O.o.^ M n ^ X.:.f.8.8...6 @ v     ",
"        ! . . - g Z A B B N n x j p g h x M M S S L / X...W ` [ { } X.X.@.j.w.o.) ) } O. . .] R A i w F ..f.f.f.8.9.W 1 = !     ",
"      Q.H . . 6 i n A M N S N x m n x j j l n v n A L L G v A A F F H F P `  .) '  .| [ H b x d y h Q X.@.;.;.f.u.:.P , < $.    ",
"      L.g . . 6 i z M M N S n g z B B M M M M k g z M D S B M A M B F V N F U U U H S v c g x I W [ @.9.;.@.` @.@./ G - 4 B.    ",
"      Z.0 . @ 9 f g j M B V N M M S S B S S S M z i p m B B N M S A L S c n m M b l l A Q ) O.i.9.%.;.8.8.@.I { ) I A - 4 Z.    ",
"      L.g . @ 9 f h g m N B S A B N S S S S F S M m i w h v n A n b Z A L / } } ) ~  .4.e.#.*.a.0.8.8.8.f.:./ ^ Q F s * 4 A.    ",
"        | - + 1 e g p h M B S S S B G F F V B B S S m d 0 w g m k M ! X.2.a.j.m.d.e.&.t.k.d.0.e.2.9.9.;.9.@.( W L d 9 * 4 G.    ",
"          ! * O 3 g g g z M S B F V G S B V F F S B M N m h g j ~ #.a.h.z.N.h.h.x.%.Q } y.j.2.%.O.o...{ / W L v k 7 @ * C P.    ",
"          I.A + % w d d d l M B B B B B B B B B F B m m V N N j U =.g.j.j.j.j.j.N.=./ } *.X./ I R Y I H x z y d } ! 2 y L.      ",
"            <.0 . : q d d d h z M m z v N V B B B B M M M V V j N &.j.j.h.j.j.j.j.j.%. .[ W L H G n h g h y w W j.j.l 1 >.      ",
"              ! @ X 3 a d f s d g g g m N N S B B n x x m M m h M &.j.j.x.h.j.a.=.+.` Q U F D D G H Y _ } I p [ N.N.E = 7 n.    ",
"              K.n X & 6 r d d d g i g z z x v z g g h f h h h p x @.g.h.g.g.2.%.} Q U T H n n ) 4.w.#.( Q  .z U i.h.I > < m.    ",
"                A.r O < 0 a i u i d d g g g g d g g g d i g g i p ! %.0.M.9.../ Q Q L G n G O.h.M.j.e.' P ) A A | @.h = 0 D.    ",
"                Y.s O r v c i w y i d d g g g k g g d d g g i i i I { X.%.| Q Q L D n n ` 9.h.x.N.j.0.=.} / x k [ } 8 = k       ",
"                <.< > c G D M d e w q a s a d f g g g g g g g i y n ! ! ! ^ W L Z B ^ X.8.h.M.h.g.0.0.@.^ Q n z I v , = H       ",
"                R O 8 C G G H F n z a r r t y a s d g g g g g g i k Q ! R L M n L X.0.g.g.j.N.%.X.@.:.( U I z z k 0 1 > d D.    ",
"                C @ 0 Z D G G G F D D c a 0 0 9 r r s s p g g g g k L F z g z / h.h.g.h.h.g.M.@.| o.) Q E v w t f G G , = [     ",
"              W.C O 8 g v D G D M D D L G g 0 8 s s u q u y e t w i g z n L ..M.N.h.h.j.M.g.g.g.g.@.) Q H a g L } i.$.4 * L     ",
"                [ = < y g n S F G G G G H A y q x N x k d i i i t i I | O.0.9.M.N.h.j.M.h.a.:.%.X.) R G k x ( j.M.M.*.4 * L     ",
"              L.! = @ 6 a g k b M M G G A A d 0 b F D G D D Z Z z k | h.M.9.:.m.M.M.j.a.%...{ / Q U k k H %.M.N.N.j.[ 4 @ D     ",
"            K.A @ . = 6 9 y d f h z m n v l p w z F L D n D G D z n %.h.N.j.0.:.@.@.X.../ H S S S h i W 9.N.N.N.N.h.W ; X A     ",
"            B.y . @ 7 9 q 9 a d g g p p d d p w j F G M v M G Z g H h.M.M.a.@.../ W L L G v d d p w L j.M.N.N.N.N.j.W = @ R     ",
"            G.d . = p u p p y u p g u e d g p w g n D M D D A n i v O.h.:.X./ Q L Z L R W / U k w k ..x.N.N.N.N.N.h.W > = [     ",
"            U.v . % w d l m l d p g u p i i e w g h x m n v z k i i D O.[ ! I A z A { ;.x.j.a.W q G j.x.N.N.N.N.M.@.F = > 1.    ",
"              D . @ 0 a g L L Z v z g g i t w 0 w g g g g g g g g a x ! H A x K ..%.9.:.9.0.N.O.z ^ N.x.=.h.N.=.} ! z $ < Z.    ",
"              C . $ 0 y g M D D G D D n z k g t 0 t i g p g g g d d C v k b ! *.M.f.:...@.x.N.X.z Q x.x.O.%. .! H D d o 6 V.    ",
"            U.v X @ 6 e i z M L L D D L D L L z g i y y e y y y t y g k L $.z.N.M.x.@.` ..j.M.O.z L y.0.} I Z x x a , X 9 G.    ",
"            E.G X @ 2 0 y g g n Z Z D D D D D D A n h i i u y w 0 0 c } j.i.*.2.M.x.g.9.9.x.M.[ h n / L v d q y 0 > . . r D.    ",
"              ] @ O , 4 r s s s f b N F N S G F n D D n M n n z p a H h.N.O.R %.M.M.M.M.0.M.Z.] g k c d i e 7 , % . < d |       ",
"              B.8 . + 4 7 r u q y k m M v M G G L D F L G F A G A k v *.N.[ b O.M.f.0.%.>.M.n.L p k c a 9 1 $ . . d >.T.        ",
"                [ 6 & * , 4 0 q i p g g p g v m n A D F F G A F G k u } N.$.] +.9.%.%.>.M.>.R g t k c 9 = . . 6 H G.            ",
"                  m.A = + + , 8 0 w w t w t i p g z z n n n n n n d p ) Z.N.j.O.{ | %.;./ v w 0 0 w 6 o . > v n.                ",
"                    K.[ k * O > 6 7 0 w y t y a y i u d h h h h g g g Y 8.9.} Q ( [ R m i 7 6 4 > & . @ 0 | K.                  ",
"                        L.! 9 @ @ , 5 0 9 0 y a t w q p p d p g g p g F W W P v M M p 0 0 6 > @ + . @ c 1.                      ",
"                            B.L - O > < 6 6 0 t t q a p d d d g g g g M A M j f f y 9 0 6 * + + + 4 H D.                        ",
"                                $.d @ @ = < 6 0 0 q a u y u d f i i g M N k u p u 0 , - @ . + = c $.                            ",
"                                  L.H 1 . . @ , 3 9 u u u u d f g y a N n d a 0 1 @ . . . & k | H.                              ",
"                                      n.v d , @ # # 3 9 9 u f f f u y x h t 5 @ . . . @ d | I.                                  ",
"                                        T.D.>.! q @ @ # = 4 9 u f y e g y < @ . O = d [ D.                                      ",
"                                                V.[ b - o + $ ; 7 w 9 8 ; . . @ a | G.                                          ",
"                                                    R.$.v > X . X > = @ . @ a [ G.                                              ",
"                                                        Y.1.L 2 o X + < v $.L.                                                  ",
"                                                              b./ v H <.                                                        ",
"                                                                                                                                "
};
